<svg width="109" height="50" viewBox="0 0 109 50" fill="none" xmlns="http://www.w3.org/2000/svg">
<path d="M21.1992 5L33.05 30.4189H28.7389L24.9026 22.1334H14.0963L10.1271 30.4189H8L20.1357 5H21.1992ZM14.837 20.5213H24.1239L19.5469 10.6799L14.837 20.5213Z" fill="white"/>
<path d="M49.3258 31C47.376 31 45.5528 30.6563 43.8562 29.969C42.1723 29.2817 40.7036 28.3444 39.4502 27.1572C38.2094 25.9575 37.2281 24.564 36.5065 22.9769C35.7974 21.3773 35.4429 19.6715 35.4429 17.8594C35.4429 16.6722 35.6012 15.5287 35.9177 14.429C36.2469 13.3292 36.709 12.3045 37.3041 11.3547C37.8992 10.405 38.6145 9.54266 39.4502 8.76784C40.2985 7.98053 41.2354 7.31194 42.2609 6.76208C43.2865 6.19971 44.3943 5.76857 45.5845 5.46864C46.7873 5.15621 48.0344 5 49.3258 5C50.6299 5 51.877 5.15621 53.0672 5.46864C54.2573 5.76857 55.3652 6.19971 56.3907 6.76208C57.4289 7.31194 58.3659 7.98053 59.2015 8.76784C60.0371 9.54266 60.7525 10.405 61.3475 11.3547C61.9553 12.3045 62.4174 13.3292 62.7339 14.429C63.0631 15.5287 63.2277 16.6722 63.2277 17.8594C63.2277 19.0716 63.0631 20.2338 62.7339 21.3461C62.4174 22.4583 61.9553 23.5018 61.3475 24.4766C60.7525 25.4513 60.0371 26.3386 59.2015 27.1384C58.3659 27.9382 57.4289 28.6256 56.3907 29.2004C55.3652 29.7753 54.2573 30.2189 53.0672 30.5314C51.877 30.8438 50.6299 31 49.3258 31ZM49.3258 29.7628C50.7692 29.7628 52.0416 29.4691 53.1432 28.8818C54.2573 28.2819 55.1942 27.4509 55.9539 26.3886C56.7136 25.3264 57.2833 24.0704 57.6632 22.6208C58.0557 21.1711 58.2519 19.584 58.2519 17.8594C58.2519 16.1473 58.0557 14.5789 57.6632 13.1543C57.2833 11.7296 56.7136 10.5049 55.9539 9.48017C55.1942 8.44292 54.2573 7.64311 53.1432 7.08075C52.0416 6.50589 50.7692 6.21846 49.3258 6.21846C47.8571 6.21846 46.5657 6.50589 45.4515 7.08075C44.35 7.64311 43.4194 8.44292 42.6598 9.48017C41.9128 10.5049 41.3493 11.7296 40.9695 13.1543C40.5897 14.5789 40.3998 16.1473 40.3998 17.8594C40.3998 19.584 40.5897 21.1711 40.9695 22.6208C41.3493 24.0704 41.9128 25.3264 42.6598 26.3886C43.4194 27.4509 44.35 28.2819 45.4515 28.8818C46.5657 29.4691 47.8571 29.7628 49.3258 29.7628Z" fill="white"/>
<path d="M67.8174 28.5443C67.9721 28.5443 68.1198 28.5756 68.2605 28.6381C68.4012 28.6936 68.5243 28.77 68.6298 28.8672C68.7353 28.9644 68.8162 29.0824 68.8725 29.2213C68.9358 29.3532 68.9674 29.492 68.9674 29.6378C68.9674 29.7975 68.9358 29.9433 68.8725 30.0752C68.8162 30.2071 68.7353 30.3217 68.6298 30.4189C68.5243 30.523 68.4012 30.6029 68.2605 30.6584C68.1198 30.714 67.9721 30.7417 67.8174 30.7417C67.6556 30.7417 67.5044 30.714 67.3637 30.6584C67.223 30.6029 67.0999 30.523 66.9944 30.4189C66.8889 30.3217 66.8045 30.2071 66.7412 30.0752C66.6849 29.9433 66.6568 29.7975 66.6568 29.6378C66.6568 29.492 66.6849 29.3532 66.7412 29.2213C66.8045 29.0824 66.8889 28.9644 66.9944 28.8672C67.0999 28.77 67.223 28.6936 67.3637 28.6381C67.5044 28.5756 67.6556 28.5443 67.8174 28.5443Z" fill="white"/>
<path d="M72.1749 20.1609L73.6837 19.5569H74.3062V30.4189H72.1749V20.1609ZM72.0061 15.6724C72.0061 15.5058 72.0377 15.3496 72.101 15.2038C72.1643 15.058 72.2523 14.9296 72.3648 14.8185C72.4774 14.7074 72.6075 14.6206 72.7552 14.5581C72.9029 14.4956 73.0612 14.4644 73.23 14.4644C73.3988 14.4644 73.5571 14.4956 73.7048 14.5581C73.8525 14.6206 73.9826 14.7074 74.0952 14.8185C74.2077 14.9296 74.2956 15.058 74.3589 15.2038C74.4222 15.3496 74.4539 15.5058 74.4539 15.6724C74.4539 15.8391 74.4222 15.9953 74.3589 16.1411C74.2956 16.2869 74.2077 16.4153 74.0952 16.5264C73.9826 16.6375 73.8525 16.7243 73.7048 16.7867C73.5571 16.8492 73.3988 16.8805 73.23 16.8805C73.0612 16.8805 72.9029 16.8492 72.7552 16.7867C72.6075 16.7243 72.4774 16.6375 72.3648 16.5264C72.2523 16.4153 72.1643 16.2869 72.101 16.1411C72.0377 15.9953 72.0061 15.8391 72.0061 15.6724Z" fill="white"/>
<path d="M79.7927 19.5569H80.4046V21.7126C81.0588 20.9906 81.7375 20.4525 82.4409 20.0985C83.1443 19.7374 83.8583 19.5569 84.5828 19.5569C84.9626 19.5569 85.3143 19.6402 85.6379 19.8069C85.9685 19.9735 86.2568 20.2026 86.503 20.4942C86.7492 20.7858 86.9427 21.1295 87.0833 21.5252C87.224 21.914 87.2944 22.3306 87.2944 22.7749V30.4189H85.1525V23.1394C85.1525 22.7853 85.1103 22.4764 85.0259 22.2125C84.9415 21.9418 84.8219 21.7161 84.6672 21.5356C84.5124 21.3551 84.3295 21.2197 84.1185 21.1295C83.9145 21.0323 83.6859 20.9837 83.4327 20.9837C83.2076 20.9837 82.9685 21.0218 82.7153 21.0982C82.462 21.1746 82.2018 21.2822 81.9345 21.4211C81.6742 21.553 81.414 21.7126 81.1537 21.9001C80.8935 22.0876 80.6438 22.2958 80.4046 22.525V30.4189H78.2522V20.1505L79.7927 19.5569Z" fill="white"/>
<path d="M93.0446 24.0558L98.4678 19.7548H99.8605L95.0176 23.6393L101 30.4189H98.1724L93.0446 24.587V30.4189H90.8922V14.9226L92.4327 14.3186H93.0446V24.0558Z" fill="white"/>
<path d="M11.6721 42.1152V45.3754L13.9156 45.5441V45.8751H8.13079V45.5441L9.73042 45.3754V37.9931L8 37.8307V37.4997H18.1209V39.5045H17.4569L17.135 38.1492C16.3838 38.0909 15.2973 38.0618 13.8754 38.0618H11.6721V41.5531H15.646L15.9579 40.5538H16.5716V43.127H15.9579L15.646 42.1152H11.6721Z" fill="white"/>
<path d="M28.3928 42.9084C28.3928 44.9695 26.9172 46 23.9661 46C22.5442 46 21.4711 45.7356 20.7468 45.2068C20.0224 44.678 19.6602 43.9119 19.6602 42.9084C19.6602 41.9174 20.0224 41.1596 20.7468 40.635C21.4711 40.1103 22.5711 39.848 24.0466 39.848C25.4819 39.848 26.5651 40.1062 27.2962 40.6225C28.0273 41.1346 28.3928 41.8966 28.3928 42.9084ZM26.5819 42.9084C26.5819 42.009 26.3706 41.3574 25.9481 40.9535C25.5255 40.5496 24.8649 40.3477 23.9661 40.3477C23.0875 40.3477 22.4503 40.5413 22.0546 40.9285C21.6656 41.3158 21.4711 41.9757 21.4711 42.9084C21.4711 43.8536 21.669 44.5239 22.0647 44.9195C22.4671 45.3109 23.1009 45.5066 23.9661 45.5066C24.8515 45.5066 25.5088 45.3026 25.938 44.8945C26.3673 44.4865 26.5819 43.8244 26.5819 42.9084Z" fill="white"/>
<path d="M32.3265 44.2012C32.3265 44.9174 32.863 45.2755 33.9362 45.2755C34.7678 45.2755 35.5459 45.211 36.2702 45.0819V40.4414L34.8416 40.2852V40.0042H37.9302V45.4379L39.1274 45.594V45.8751H36.3708L36.2903 45.4004C35.8141 45.5628 35.2642 45.7044 34.6404 45.8251C34.0167 45.9417 33.4935 46 33.071 46C31.4613 46 30.6564 45.4254 30.6564 44.2762V40.4414L29.4492 40.2852V40.0042H32.3265V44.2012Z" fill="white"/>
<path d="M42.7392 40.4788C43.2556 40.2956 43.8056 40.1457 44.3891 40.0291C44.9726 39.9084 45.4589 39.848 45.8479 39.848C46.6662 39.848 47.2832 39.9958 47.699 40.2915C48.1149 40.5871 48.3228 41.016 48.3228 41.5781V45.4379L49.4697 45.594V45.8751H45.3952V45.594L46.6527 45.4379V41.6905C46.6527 41.3449 46.5153 41.0743 46.2403 40.8786C45.972 40.6787 45.5528 40.5788 44.9827 40.5788C44.3791 40.5788 43.6379 40.6391 42.7593 40.7599V45.4379L44.037 45.594V45.8751H39.9524V45.594L41.0892 45.4379V40.4414L39.9524 40.2852V40.0042H42.6486L42.7392 40.4788Z" fill="white"/>
<path d="M57.0554 45.4379C56.2975 45.8126 55.4122 46 54.3994 46C51.8172 46 50.5261 44.9986 50.5261 42.9958C50.5261 41.9674 50.8916 41.1867 51.6227 40.6537C52.3537 40.1166 53.4302 39.848 54.8521 39.848C55.5765 39.848 56.3109 39.8959 57.0554 39.9917C57.0151 39.8543 56.995 39.5087 56.995 38.9549V37.431L55.4054 37.2811V37H58.6651V45.4379L59.8321 45.594V45.8751H57.1761L57.0554 45.4379ZM52.337 42.9958C52.337 43.787 52.5516 44.3782 52.9808 44.7696C53.4101 45.1568 54.0674 45.3505 54.9527 45.3505C55.7106 45.3505 56.3914 45.2693 56.995 45.1069V40.4663C56.3981 40.3956 55.7173 40.3602 54.9527 40.3602C53.2089 40.3602 52.337 41.2387 52.337 42.9958Z" fill="white"/>
<path d="M64.7618 39.873C65.7947 39.873 66.5526 40.0042 67.0355 40.2665C67.5251 40.5288 67.7699 40.9306 67.7699 41.4719V45.4379L68.947 45.594V45.8751H66.3514L66.1602 45.288C65.3956 45.7627 64.4197 46 63.2326 46C61.6162 46 60.808 45.4171 60.808 44.2512C60.808 43.8598 60.9287 43.5371 61.1702 43.2831C61.4183 43.025 61.8107 42.8293 62.3472 42.696C62.8838 42.5586 63.6618 42.4837 64.6813 42.4712L66.0998 42.4462V41.5281C66.0998 41.1242 65.9791 40.8265 65.7377 40.635C65.5029 40.4434 65.1374 40.3477 64.6411 40.3477C63.9704 40.3477 63.3567 40.4455 62.8 40.6412L62.4579 41.372H61.8945V40.0916C62.9811 39.9459 63.9368 39.873 64.7618 39.873ZM66.0998 42.8834L64.7819 42.9084C63.8832 42.9292 63.2728 43.0375 62.9509 43.2332C62.6357 43.4289 62.478 43.7557 62.478 44.2137C62.478 44.9466 62.9576 45.313 63.9167 45.313C64.3728 45.313 64.7651 45.2817 65.0938 45.2193C65.4291 45.1527 65.7645 45.0694 66.0998 44.9695V42.8834Z" fill="white"/>
<path d="M72.599 46C71.9551 46 71.4722 45.8813 71.1503 45.644C70.835 45.4067 70.6774 45.0736 70.6774 44.6447V40.5288H69.44V40.2477L70.6975 40.0042L71.7137 38.6738H72.3475V40.0042H74.5105V40.5288H72.3475V44.5323C72.3475 44.8029 72.4447 45.0069 72.6392 45.1443C72.8404 45.2817 73.102 45.3505 73.424 45.3505C73.813 45.3505 74.2858 45.3171 74.8425 45.2505V45.6565C74.6077 45.7564 74.269 45.8376 73.8264 45.9001C73.3837 45.9667 72.9746 46 72.599 46Z" fill="white"/>
<path d="M78.7862 38.0867C78.7862 38.27 78.6789 38.4282 78.4643 38.5614C78.2497 38.6947 77.9915 38.7613 77.6896 38.7613C77.3945 38.7613 77.1397 38.6947 76.925 38.5614C76.7104 38.4282 76.6031 38.27 76.6031 38.0867C76.6031 37.8994 76.7104 37.7391 76.925 37.6058C77.1397 37.4726 77.3945 37.406 77.6896 37.406C77.9915 37.406 78.2497 37.4726 78.4643 37.6058C78.6789 37.7391 78.7862 37.8994 78.7862 38.0867ZM78.6856 45.4379L80.3054 45.594V45.8751H75.4059V45.594L77.0156 45.4379V40.4414L75.6775 40.2852V40.0042H78.6856V45.4379Z" fill="white"/>
<path d="M90.2251 42.9084C90.2251 44.9695 88.7496 46 85.7985 46C84.3766 46 83.3034 45.7356 82.5791 45.2068C81.8547 44.678 81.4925 43.9119 81.4925 42.9084C81.4925 41.9174 81.8547 41.1596 82.5791 40.635C83.3034 40.1103 84.4034 39.848 85.8789 39.848C87.3143 39.848 88.3974 40.1062 89.1285 40.6225C89.8596 41.1346 90.2251 41.8966 90.2251 42.9084ZM88.4142 42.9084C88.4142 42.009 88.2029 41.3574 87.7804 40.9535C87.3579 40.5496 86.6972 40.3477 85.7985 40.3477C84.9198 40.3477 84.2827 40.5413 83.887 40.9285C83.4979 41.3158 83.3034 41.9757 83.3034 42.9084C83.3034 43.8536 83.5013 44.5239 83.897 44.9195C84.2994 45.3109 84.9333 45.5066 85.7985 45.5066C86.6838 45.5066 87.3411 45.3026 87.7703 44.8945C88.1996 44.4865 88.4142 43.8244 88.4142 42.9084Z" fill="white"/>
<path d="M94.2695 40.4788C94.7859 40.2956 95.3359 40.1457 95.9194 40.0291C96.5029 39.9084 96.9892 39.848 97.3782 39.848C98.1965 39.848 98.8135 39.9958 99.2293 40.2915C99.6452 40.5871 99.8531 41.016 99.8531 41.5781V45.4379L101 45.594V45.8751H96.9255V45.594L98.183 45.4379V41.6905C98.183 41.3449 98.0455 41.0743 97.7706 40.8786C97.5023 40.6787 97.0831 40.5788 96.513 40.5788C95.9093 40.5788 95.1682 40.6391 94.2896 40.7599V45.4379L95.5673 45.594V45.8751H91.4827V45.594L92.6195 45.4379V40.4414L91.4827 40.2852V40.0042H94.1789L94.2695 40.4788Z" fill="white"/>
</svg>
