<svg width="109" height="50" viewBox="0 0 109 50" fill="none" xmlns="http://www.w3.org/2000/svg">
<g clip-path="url(#clip0_324:137)">
<path d="M2.51625 33.6887C-0.335533 28.6957 -0.876869 23.6433 1.47823 18.5238C4.40442 12.1506 9.69873 8.61605 16.2971 6.886C23.5837 4.97737 30.4351 6.18282 36.76 10.2084C39.4595 11.8949 41.6758 14.2522 43.1928 17.0505C40.4024 14.1745 37.0055 12.7496 33.0376 13.0193C29.0697 13.289 25.8328 15.047 23.634 18.4029C20.3729 23.3791 21.2621 29.9198 26.1249 33.8598C31.0229 37.8296 39.5188 37.7217 44.2531 31.2815C43.6709 32.2916 43.1556 33.3483 42.497 34.3044C39.2527 39.0128 34.6839 41.8813 29.2371 43.2337C21.5561 45.1498 14.355 43.8811 7.82731 39.3123C5.52244 37.6994 5.54848 37.6548 6.52512 34.989C6.73905 34.4086 6.99391 33.8431 7.22272 33.2683C7.8087 31.7949 7.80684 31.7931 9.33784 31.7949C11.6948 31.7949 14.0499 31.8191 16.4068 31.7819C17.0058 31.7726 17.2737 31.9679 17.4709 32.526C17.8225 33.5157 18.2466 34.483 18.6838 35.4392C18.7936 35.681 19.0559 36.0177 19.2642 36.0252C20.6129 36.0773 21.9653 36.0531 23.4889 36.0531C22.7448 34.2728 22.0732 32.6562 21.3924 31.0434C19.1117 25.6561 16.8273 20.2712 14.5391 14.8889C14.3401 14.4201 14.1224 13.7243 13.7634 13.609C13.0844 13.3951 12.2901 13.4658 11.559 13.5513C11.3339 13.5774 11.0995 14.0145 10.9712 14.3066C9.74524 17.0821 8.55281 19.8669 7.33248 22.6462C5.75869 26.2718 4.17189 29.8975 2.51625 33.6887Z" fill="#3174E3"/>
<path d="M41.4738 24.7761C41.4706 25.7908 41.2674 26.7949 40.8758 27.731C40.4842 28.667 39.9118 29.5167 39.1915 30.2313C38.4711 30.9459 37.617 31.5115 36.6778 31.8957C35.7387 32.2799 34.733 32.4751 33.7183 32.4702C29.6723 32.4553 26.2401 28.865 26.2419 24.6571C26.2419 20.5645 29.7244 17.0933 33.8393 17.0821C38.049 17.0653 41.4645 20.5068 41.4738 24.7761Z" fill="#3174E3"/>
<path d="M15.6738 27.989H9.31543C10.3739 25.3958 11.4101 22.8547 12.5114 20.1536C13.5978 22.8491 14.619 25.3791 15.6738 27.989Z" fill="#3174E3"/>
<path d="M2.50832 33.6014C-0.334476 28.6242 -0.874105 23.5877 1.47357 18.4843C4.39054 12.1312 9.66817 8.6078 16.2457 6.88321C23.5094 4.98059 30.3392 6.18224 36.6441 10.1952C39.3351 11.8763 41.5445 14.2262 43.0567 17.0157C40.2751 14.1488 36.8889 12.7283 32.9335 12.9972C28.9781 13.2661 25.7514 15.0185 23.5595 18.3638C20.3087 23.3243 21.1951 29.8444 26.0425 33.772C30.9252 37.7293 39.3942 37.6218 44.1137 31.2018C43.5333 32.2088 43.0196 33.2621 42.3631 34.2152C39.129 38.9087 34.5746 41.7682 29.1449 43.1164C21.4881 45.0264 14.3097 43.7617 7.80264 39.2073C5.50504 37.5995 5.531 37.555 6.50456 34.8977C6.71781 34.3191 6.97187 33.7553 7.19996 33.1823C7.7841 31.7136 7.78224 31.7118 9.30841 31.7136C11.6579 31.7136 14.0056 31.7378 16.3551 31.7007C16.9523 31.6914 17.2193 31.8861 17.4159 32.4424C17.7663 33.429 18.1891 34.3933 18.6249 35.3464C18.7343 35.5875 18.9958 35.9231 19.2035 35.9306C20.5479 35.9825 21.8961 35.9584 23.4148 35.9584C22.6731 34.1837 22.0036 32.5722 21.3249 30.9645C19.0514 25.5941 16.7742 20.2262 14.4933 14.8608C14.2949 14.3935 14.0779 13.7 13.72 13.585C13.0432 13.3718 12.2513 13.4422 11.5226 13.5275C11.2982 13.5535 11.0645 13.9893 10.9366 14.2804C9.71453 17.0472 8.52586 19.8232 7.30937 22.5937C5.74055 26.2079 4.15874 29.8222 2.50832 33.6014Z" fill="#3174E3"/>
<path d="M15.6245 27.9196H9.28613C10.3413 25.3346 11.3742 22.8015 12.472 20.1089C13.555 22.7959 14.573 25.3179 15.6245 27.9196Z" fill="#3174E3"/>
<path fill-rule="evenodd" clip-rule="evenodd" d="M40.7472 27.6625C41.1375 26.7294 41.3401 25.7285 41.3433 24.717C41.334 20.4611 37.9293 17.0305 33.7328 17.0472C29.6309 17.0583 26.1594 20.5186 26.1594 24.5983C26.1576 28.793 29.5789 32.372 33.6123 32.3868C34.6237 32.3917 35.6262 32.1971 36.5624 31.8141C37.4986 31.4311 38.3501 30.8673 39.0682 30.155C39.7862 29.4426 40.3568 28.5956 40.7472 27.6625ZM33.6575 21.544L30.3793 24.8222L33.6575 28.1003L36.9356 24.8222L33.6575 21.544Z" fill="#3174E3"/>
<path d="M49.8542 37.8893C49.8542 37.2523 50.0758 36.7261 50.5189 36.3107C50.9621 35.8675 51.4883 35.646 52.0976 35.646C52.7069 35.646 53.2192 35.8675 53.6347 36.3107C54.0778 36.7261 54.2994 37.2523 54.2994 37.8893C54.2994 38.4709 54.0778 38.9833 53.6347 39.4264C53.2192 39.8695 52.7069 40.0911 52.0976 40.0911C51.4883 40.0911 50.9621 39.8695 50.5189 39.4264C50.0758 38.9833 49.8542 38.4709 49.8542 37.8893Z" fill="#333333"/>
<path d="M63.8099 38.8448C63.8099 39.9526 63.2836 40.5065 62.2312 40.5065C61.1511 40.5065 60.611 39.9526 60.611 38.8448V19.9011C60.611 19.2641 60.7633 18.821 61.068 18.5717C61.3726 18.2948 61.7604 18.1563 62.2312 18.1563C62.702 18.1563 63.0759 18.2809 63.3529 18.5302C63.6575 18.7794 63.8099 19.2364 63.8099 19.9011V38.8448ZM60.1125 12.9634C60.1125 12.3818 60.3064 11.8833 60.6941 11.4678C61.1095 11.0524 61.6219 10.8447 62.2312 10.8447C62.8128 10.8447 63.2975 11.0524 63.6852 11.4678C64.1007 11.8833 64.3084 12.3818 64.3084 12.9634C64.3084 13.545 64.1007 14.0435 63.6852 14.4589C63.2975 14.8744 62.8128 15.0821 62.2312 15.0821C61.6219 15.0821 61.1095 14.8744 60.6941 14.4589C60.3064 14.0435 60.1125 13.545 60.1125 12.9634Z" fill="#333333"/>
<path d="M84.4656 26.7557C84.4656 24.5124 84.0363 22.9338 83.1778 22.0198C82.3192 21.1059 81.0591 20.6489 79.3973 20.6489C78.6772 20.6489 77.9572 20.7597 77.2371 20.9812C76.517 21.1751 75.8662 21.5074 75.2845 21.9783C74.7029 22.4491 74.2183 23.0584 73.8305 23.8062C73.4705 24.5539 73.2905 25.4679 73.2905 26.548V39.011C73.2905 40.008 72.7643 40.5065 71.7118 40.5065C71.241 40.5065 70.8533 40.3681 70.5486 40.0911C70.2717 39.8142 70.1332 39.4541 70.1332 39.011V19.6518C70.1332 19.1533 70.2717 18.7794 70.5486 18.5302C70.8533 18.2809 71.2549 18.1563 71.7534 18.1563C72.7781 18.1563 73.2905 18.6548 73.2905 19.6518V21.9783C73.5397 21.4797 73.8721 20.9812 74.2875 20.4827C74.7306 19.9842 75.243 19.5411 75.8246 19.1533C76.4062 18.7379 77.0571 18.4055 77.7771 18.1563C78.4972 17.907 79.2727 17.7824 80.1036 17.7824C81.1837 17.7824 82.1807 17.9347 83.0947 18.2394C84.0086 18.544 84.7979 19.0148 85.4626 19.6518C86.1273 20.2611 86.6535 21.0505 87.0413 22.0198C87.429 22.9891 87.6229 24.1385 87.6229 25.4679V39.011C87.6229 40.008 87.0967 40.5065 86.0442 40.5065C84.9918 40.5065 84.4656 40.008 84.4656 39.011V26.7557Z" fill="#333333"/>
<path d="M95.5236 39.011C95.5236 39.9526 94.9835 40.4511 93.9034 40.5065C92.8509 40.5065 92.3247 40.008 92.3247 39.011V11.0524C92.3247 10.4154 92.4355 9.97227 92.6571 9.72301C92.8786 9.47375 93.2941 9.34912 93.9034 9.34912C94.5127 9.34912 94.9281 9.4876 95.1497 9.76456C95.3989 10.0415 95.5236 10.5123 95.5236 11.177V28.6252L105.619 18.7379C106.006 18.3778 106.422 18.2117 106.865 18.2394C107.308 18.2394 107.668 18.3778 107.945 18.6548C108.25 18.9041 108.402 19.2503 108.402 19.6934C108.402 20.1365 108.153 20.6073 107.654 21.1059L99.1794 29.2068L107.945 37.4323C108.499 37.9586 108.79 38.4571 108.817 38.9279C108.845 39.3987 108.707 39.7726 108.402 40.0496C108.125 40.3265 107.751 40.465 107.28 40.465C106.837 40.4927 106.422 40.3127 106.034 39.9249L95.5236 29.9546V39.011Z" fill="#333333"/>
</g>
<defs>
<clipPath id="clip0_324:137">
<rect width="109" height="50" fill="white"/>
</clipPath>
</defs>
</svg>
