<svg width="240" height="100" viewBox="0 0 240 100" fill="none" xmlns="http://www.w3.org/2000/svg">
<rect width="240" height="100" fill="white"/>
<rect x="0.5" y="0.5" width="239" height="99" stroke="black" stroke-opacity="0.1"/>
<path d="M46.3887 43.377H51.5449C52.209 43.377 52.7949 43.4941 53.3027 43.7285C53.8105 43.9564 54.237 44.2559 54.582 44.627C54.9271 44.9915 55.1875 45.4049 55.3633 45.8672C55.5456 46.3294 55.6367 46.7917 55.6367 47.2539C55.6367 47.7487 55.5456 48.2305 55.3633 48.6992C55.1875 49.168 54.9238 49.5846 54.5723 49.9492C54.2272 50.3138 53.8008 50.6068 53.293 50.8281C52.7852 51.0495 52.2025 51.1602 51.5449 51.1602H47.834V57H46.3887V43.377ZM47.834 49.8809H51.5449C51.8965 49.8809 52.2318 49.8125 52.5508 49.6758C52.8698 49.5391 53.1497 49.3503 53.3906 49.1094C53.638 48.8685 53.8333 48.5885 53.9766 48.2695C54.1198 47.9505 54.1914 47.6055 54.1914 47.2344C54.1914 46.8698 54.123 46.5345 53.9863 46.2285C53.8561 45.916 53.6706 45.6458 53.4297 45.418C53.1953 45.1901 52.9154 45.0143 52.5898 44.8906C52.2708 44.7604 51.9225 44.6953 51.5449 44.6953H47.834V49.8809ZM63.5762 43.377L68.5273 57H67.0234L65.4512 52.6641H59.6602L58.0879 57H56.5938L61.584 43.377H63.5762ZM62.5605 44.7246L60.0605 51.5703H65.0508L62.5605 44.7246ZM81.3594 47.2539C81.3594 47.5924 81.3171 47.9245 81.2324 48.25C81.1543 48.5755 81.0339 48.8848 80.8711 49.1777C80.7148 49.4642 80.5163 49.7279 80.2754 49.9688C80.0345 50.2096 79.7578 50.418 79.4453 50.5938C79.7969 50.6849 80.0833 50.8249 80.3047 51.0137C80.5326 51.196 80.7083 51.4108 80.832 51.6582C80.9622 51.8991 81.0501 52.1628 81.0957 52.4492C81.1478 52.7357 81.1738 53.0286 81.1738 53.3281V55.3887C81.1738 55.6816 81.2129 55.9681 81.291 56.248C81.3757 56.5215 81.4798 56.7721 81.6035 57H80.0312C79.9661 56.8958 79.9141 56.7786 79.875 56.6484C79.8424 56.5117 79.8164 56.3717 79.7969 56.2285C79.7773 56.0853 79.7643 55.9486 79.7578 55.8184C79.7513 55.6816 79.748 55.5645 79.748 55.4668V53.2988C79.748 53.0384 79.7025 52.7812 79.6113 52.5273C79.5267 52.2669 79.3835 52.0358 79.1816 51.834C78.9863 51.6322 78.7292 51.4694 78.4102 51.3457C78.0911 51.222 77.7038 51.1602 77.248 51.1602H73.127V57H71.6816V43.377H77.248C77.9121 43.377 78.498 43.4941 79.0059 43.7285C79.5202 43.9564 79.9499 44.2559 80.2949 44.627C80.6465 44.9915 80.9102 45.4049 81.0859 45.8672C81.2682 46.3294 81.3594 46.7917 81.3594 47.2539ZM73.127 49.8809H77.248C77.6061 49.8809 77.9447 49.8125 78.2637 49.6758C78.5827 49.5391 78.8626 49.3503 79.1035 49.1094C79.3509 48.8685 79.5462 48.5885 79.6895 48.2695C79.8327 47.9505 79.9043 47.6055 79.9043 47.2344C79.9043 46.8698 79.8359 46.5345 79.6992 46.2285C79.569 45.916 79.3835 45.6458 79.1426 45.418C78.9082 45.1901 78.6283 45.0143 78.3027 44.8906C77.9772 44.7604 77.6257 44.6953 77.248 44.6953H73.127V49.8809ZM94.7773 43.377V44.6953H90.2656V57H88.8203V44.6953H84.3184V43.377H94.7773ZM99.7285 43.377L106.662 55.1543V43.377H108.107V57H106.174L99.2402 45.2324V57H97.7949V43.377H99.7285ZM121.096 43.377V44.6953H113.459V49.3047H120.646V50.623H113.459V55.6816H121.438V57H112.014V43.377H121.096ZM134.504 47.2539C134.504 47.5924 134.462 47.9245 134.377 48.25C134.299 48.5755 134.178 48.8848 134.016 49.1777C133.859 49.4642 133.661 49.7279 133.42 49.9688C133.179 50.2096 132.902 50.418 132.59 50.5938C132.941 50.6849 133.228 50.8249 133.449 51.0137C133.677 51.196 133.853 51.4108 133.977 51.6582C134.107 51.8991 134.195 52.1628 134.24 52.4492C134.292 52.7357 134.318 53.0286 134.318 53.3281V55.3887C134.318 55.6816 134.357 55.9681 134.436 56.248C134.52 56.5215 134.624 56.7721 134.748 57H133.176C133.111 56.8958 133.059 56.7786 133.02 56.6484C132.987 56.5117 132.961 56.3717 132.941 56.2285C132.922 56.0853 132.909 55.9486 132.902 55.8184C132.896 55.6816 132.893 55.5645 132.893 55.4668V53.2988C132.893 53.0384 132.847 52.7812 132.756 52.5273C132.671 52.2669 132.528 52.0358 132.326 51.834C132.131 51.6322 131.874 51.4694 131.555 51.3457C131.236 51.222 130.848 51.1602 130.393 51.1602H126.271V57H124.826V43.377H130.393C131.057 43.377 131.643 43.4941 132.15 43.7285C132.665 43.9564 133.094 44.2559 133.439 44.627C133.791 44.9915 134.055 45.4049 134.23 45.8672C134.413 46.3294 134.504 46.7917 134.504 47.2539ZM126.271 49.8809H130.393C130.751 49.8809 131.089 49.8125 131.408 49.6758C131.727 49.5391 132.007 49.3503 132.248 49.1094C132.495 48.8685 132.691 48.5885 132.834 48.2695C132.977 47.9505 133.049 47.6055 133.049 47.2344C133.049 46.8698 132.98 46.5345 132.844 46.2285C132.714 45.916 132.528 45.6458 132.287 45.418C132.053 45.1901 131.773 45.0143 131.447 44.8906C131.122 44.7604 130.77 44.6953 130.393 44.6953H126.271V49.8809ZM144.377 43.377V55.6816H151.223V57H142.932V43.377H144.377ZM165.695 50.1738C165.695 51.222 165.559 52.1855 165.285 53.0645C165.018 53.9434 164.624 54.7018 164.104 55.3398C163.583 55.9714 162.941 56.4629 162.18 56.8145C161.424 57.166 160.559 57.3418 159.582 57.3418C158.605 57.3418 157.736 57.166 156.975 56.8145C156.219 56.4629 155.581 55.9714 155.061 55.3398C154.546 54.7018 154.152 53.9434 153.879 53.0645C153.612 52.1855 153.479 51.222 153.479 50.1738C153.479 49.1322 153.612 48.1751 153.879 47.3027C154.152 46.4238 154.546 45.6686 155.061 45.0371C155.581 44.4056 156.219 43.9141 156.975 43.5625C157.736 43.2109 158.605 43.0352 159.582 43.0352C160.559 43.0352 161.424 43.2109 162.18 43.5625C162.941 43.9141 163.583 44.4056 164.104 45.0371C164.624 45.6686 165.018 46.4238 165.285 47.3027C165.559 48.1751 165.695 49.1322 165.695 50.1738ZM164.24 50.1738C164.24 49.2559 164.12 48.4355 163.879 47.7129C163.638 46.9837 163.306 46.3685 162.883 45.8672C162.466 45.3594 161.975 44.9753 161.408 44.7148C160.842 44.4479 160.233 44.3145 159.582 44.3145C158.924 44.3145 158.312 44.4479 157.746 44.7148C157.18 44.9753 156.688 45.3594 156.271 45.8672C155.855 46.3685 155.526 46.9837 155.285 47.7129C155.051 48.4355 154.934 49.2559 154.934 50.1738C154.934 51.0918 155.051 51.9154 155.285 52.6445C155.526 53.3737 155.855 53.9922 156.271 54.5C156.688 55.0013 157.18 55.3854 157.746 55.6523C158.312 55.9193 158.924 56.0527 159.582 56.0527C160.233 56.0527 160.842 55.9193 161.408 55.6523C161.975 55.3854 162.466 55.0013 162.883 54.5C163.306 53.9922 163.638 53.3737 163.879 52.6445C164.12 51.9154 164.24 51.0918 164.24 50.1738ZM169.494 50.1641C169.494 51.1016 169.618 51.9349 169.865 52.6641C170.119 53.3932 170.461 54.0085 170.891 54.5098C171.32 55.0111 171.818 55.3952 172.385 55.6621C172.951 55.9225 173.55 56.0527 174.182 56.0527C174.553 56.0527 174.917 55.9909 175.275 55.8672C175.64 55.737 175.985 55.5612 176.311 55.3398C176.643 55.1185 176.949 54.8548 177.229 54.5488C177.508 54.2363 177.753 53.901 177.961 53.543C178.169 53.1784 178.332 52.7943 178.449 52.3906C178.573 51.987 178.641 51.5768 178.654 51.1602H174.426V49.8809H180.031V57H179.143L178.713 54.5781C178.485 54.9297 178.202 55.2715 177.863 55.6035C177.531 55.929 177.167 56.222 176.77 56.4824C176.372 56.7428 175.956 56.9512 175.52 57.1074C175.083 57.2637 174.65 57.3418 174.221 57.3418C173.27 57.3418 172.414 57.1595 171.652 56.7949C170.891 56.4238 170.243 55.9193 169.709 55.2812C169.175 54.6367 168.765 53.8783 168.479 53.0059C168.192 52.127 168.049 51.1797 168.049 50.1641C168.049 49.5716 168.107 48.9857 168.225 48.4062C168.348 47.8203 168.527 47.2637 168.762 46.7363C169.003 46.209 169.296 45.7207 169.641 45.2715C169.992 44.8158 170.393 44.4251 170.842 44.0996C171.291 43.7676 171.789 43.5072 172.336 43.3184C172.883 43.1296 173.479 43.0352 174.123 43.0352C174.93 43.0352 175.65 43.1393 176.281 43.3477C176.919 43.556 177.476 43.849 177.951 44.2266C178.426 44.6042 178.82 45.0534 179.133 45.5742C179.452 46.0951 179.699 46.668 179.875 47.293H178.342C177.984 46.2773 177.46 45.5254 176.77 45.0371C176.086 44.5488 175.204 44.3047 174.123 44.3047C173.446 44.3047 172.824 44.4609 172.258 44.7734C171.691 45.0859 171.203 45.5091 170.793 46.043C170.383 46.5768 170.064 47.1986 169.836 47.9082C169.608 48.6178 169.494 49.3698 169.494 50.1641ZM195.383 50.1738C195.383 51.222 195.246 52.1855 194.973 53.0645C194.706 53.9434 194.312 54.7018 193.791 55.3398C193.27 55.9714 192.629 56.4629 191.867 56.8145C191.112 57.166 190.246 57.3418 189.27 57.3418C188.293 57.3418 187.424 57.166 186.662 56.8145C185.907 56.4629 185.269 55.9714 184.748 55.3398C184.234 54.7018 183.84 53.9434 183.566 53.0645C183.299 52.1855 183.166 51.222 183.166 50.1738C183.166 49.1322 183.299 48.1751 183.566 47.3027C183.84 46.4238 184.234 45.6686 184.748 45.0371C185.269 44.4056 185.907 43.9141 186.662 43.5625C187.424 43.2109 188.293 43.0352 189.27 43.0352C190.246 43.0352 191.112 43.2109 191.867 43.5625C192.629 43.9141 193.27 44.4056 193.791 45.0371C194.312 45.6686 194.706 46.4238 194.973 47.3027C195.246 48.1751 195.383 49.1322 195.383 50.1738ZM193.928 50.1738C193.928 49.2559 193.807 48.4355 193.566 47.7129C193.326 46.9837 192.993 46.3685 192.57 45.8672C192.154 45.3594 191.662 44.9753 191.096 44.7148C190.529 44.4479 189.921 44.3145 189.27 44.3145C188.612 44.3145 188 44.4479 187.434 44.7148C186.867 44.9753 186.376 45.3594 185.959 45.8672C185.542 46.3685 185.214 46.9837 184.973 47.7129C184.738 48.4355 184.621 49.2559 184.621 50.1738C184.621 51.0918 184.738 51.9154 184.973 52.6445C185.214 53.3737 185.542 53.9922 185.959 54.5C186.376 55.0013 186.867 55.3854 187.434 55.6523C188 55.9193 188.612 56.0527 189.27 56.0527C189.921 56.0527 190.529 55.9193 191.096 55.6523C191.662 55.3854 192.154 55.0013 192.57 54.5C192.993 53.9922 193.326 53.3737 193.566 52.6445C193.807 51.9154 193.928 51.0918 193.928 50.1738Z" fill="black" fill-opacity="0.1"/>
</svg>
