<svg width="240" height="100" viewBox="0 0 240 100" fill="none" xmlns="http://www.w3.org/2000/svg">
<rect width="240" height="100" fill="white"/>
<rect x="0.5" y="0.5" width="239" height="99" stroke="black" stroke-opacity="0.1"/>
<path d="M75.9668 43.377H81.123C81.7871 43.377 82.373 43.4941 82.8809 43.7285C83.3887 43.9564 83.8151 44.2559 84.1602 44.627C84.5052 44.9915 84.7656 45.4049 84.9414 45.8672C85.1237 46.3294 85.2148 46.7917 85.2148 47.2539C85.2148 47.7487 85.1237 48.2305 84.9414 48.6992C84.7656 49.168 84.502 49.5846 84.1504 49.9492C83.8053 50.3138 83.3789 50.6068 82.8711 50.8281C82.3633 51.0495 81.7806 51.1602 81.123 51.1602H77.4121V57H75.9668V43.377ZM77.4121 49.8809H81.123C81.4746 49.8809 81.8099 49.8125 82.1289 49.6758C82.4479 49.5391 82.7279 49.3503 82.9688 49.1094C83.2161 48.8685 83.4115 48.5885 83.5547 48.2695C83.6979 47.9505 83.7695 47.6055 83.7695 47.2344C83.7695 46.8698 83.7012 46.5345 83.5645 46.2285C83.4342 45.916 83.2487 45.6458 83.0078 45.418C82.7734 45.1901 82.4935 45.0143 82.168 44.8906C81.849 44.7604 81.5007 44.6953 81.123 44.6953H77.4121V49.8809ZM93.1543 43.377L98.1055 57H96.6016L95.0293 52.6641H89.2383L87.666 57H86.1719L91.1621 43.377H93.1543ZM92.1387 44.7246L89.6387 51.5703H94.6289L92.1387 44.7246ZM110.938 47.2539C110.938 47.5924 110.895 47.9245 110.811 48.25C110.732 48.5755 110.612 48.8848 110.449 49.1777C110.293 49.4642 110.094 49.7279 109.854 49.9688C109.613 50.2096 109.336 50.418 109.023 50.5938C109.375 50.6849 109.661 50.8249 109.883 51.0137C110.111 51.196 110.286 51.4108 110.41 51.6582C110.54 51.8991 110.628 52.1628 110.674 52.4492C110.726 52.7357 110.752 53.0286 110.752 53.3281V55.3887C110.752 55.6816 110.791 55.9681 110.869 56.248C110.954 56.5215 111.058 56.7721 111.182 57H109.609C109.544 56.8958 109.492 56.7786 109.453 56.6484C109.421 56.5117 109.395 56.3717 109.375 56.2285C109.355 56.0853 109.342 55.9486 109.336 55.8184C109.329 55.6816 109.326 55.5645 109.326 55.4668V53.2988C109.326 53.0384 109.281 52.7812 109.189 52.5273C109.105 52.2669 108.962 52.0358 108.76 51.834C108.564 51.6322 108.307 51.4694 107.988 51.3457C107.669 51.222 107.282 51.1602 106.826 51.1602H102.705V57H101.26V43.377H106.826C107.49 43.377 108.076 43.4941 108.584 43.7285C109.098 43.9564 109.528 44.2559 109.873 44.627C110.225 44.9915 110.488 45.4049 110.664 45.8672C110.846 46.3294 110.938 46.7917 110.938 47.2539ZM102.705 49.8809H106.826C107.184 49.8809 107.523 49.8125 107.842 49.6758C108.161 49.5391 108.441 49.3503 108.682 49.1094C108.929 48.8685 109.124 48.5885 109.268 48.2695C109.411 47.9505 109.482 47.6055 109.482 47.2344C109.482 46.8698 109.414 46.5345 109.277 46.2285C109.147 45.916 108.962 45.6458 108.721 45.418C108.486 45.1901 108.206 45.0143 107.881 44.8906C107.555 44.7604 107.204 44.6953 106.826 44.6953H102.705V49.8809ZM124.355 43.377V44.6953H119.844V57H118.398V44.6953H113.896V43.377H124.355ZM129.307 43.377L136.24 55.1543V43.377H137.686V57H135.752L128.818 45.2324V57H127.373V43.377H129.307ZM150.674 43.377V44.6953H143.037V49.3047H150.225V50.623H143.037V55.6816H151.016V57H141.592V43.377H150.674ZM164.082 47.2539C164.082 47.5924 164.04 47.9245 163.955 48.25C163.877 48.5755 163.757 48.8848 163.594 49.1777C163.438 49.4642 163.239 49.7279 162.998 49.9688C162.757 50.2096 162.48 50.418 162.168 50.5938C162.52 50.6849 162.806 50.8249 163.027 51.0137C163.255 51.196 163.431 51.4108 163.555 51.6582C163.685 51.8991 163.773 52.1628 163.818 52.4492C163.87 52.7357 163.896 53.0286 163.896 53.3281V55.3887C163.896 55.6816 163.936 55.9681 164.014 56.248C164.098 56.5215 164.202 56.7721 164.326 57H162.754C162.689 56.8958 162.637 56.7786 162.598 56.6484C162.565 56.5117 162.539 56.3717 162.52 56.2285C162.5 56.0853 162.487 55.9486 162.48 55.8184C162.474 55.6816 162.471 55.5645 162.471 55.4668V53.2988C162.471 53.0384 162.425 52.7812 162.334 52.5273C162.249 52.2669 162.106 52.0358 161.904 51.834C161.709 51.6322 161.452 51.4694 161.133 51.3457C160.814 51.222 160.426 51.1602 159.971 51.1602H155.85V57H154.404V43.377H159.971C160.635 43.377 161.221 43.4941 161.729 43.7285C162.243 43.9564 162.673 44.2559 163.018 44.627C163.369 44.9915 163.633 45.4049 163.809 45.8672C163.991 46.3294 164.082 46.7917 164.082 47.2539ZM155.85 49.8809H159.971C160.329 49.8809 160.667 49.8125 160.986 49.6758C161.305 49.5391 161.585 49.3503 161.826 49.1094C162.074 48.8685 162.269 48.5885 162.412 48.2695C162.555 47.9505 162.627 47.6055 162.627 47.2344C162.627 46.8698 162.559 46.5345 162.422 46.2285C162.292 45.916 162.106 45.6458 161.865 45.418C161.631 45.1901 161.351 45.0143 161.025 44.8906C160.7 44.7604 160.348 44.6953 159.971 44.6953H155.85V49.8809Z" fill="black" fill-opacity="0.1"/>
</svg>
